<?xml version="1.0" encoding="UTF-8"?>
<svg viewBox="0 0 128 128" xmlns="http://www.w3.org/2000/svg">
 <defs>
  <linearGradient id="b" x1="83.939" x2="192.13" y1="217.9" y2="139.95" gradientUnits="userSpaceOnUse">
   <stop stop-color="#ffd42a" offset="0"/>
   <stop stop-color="#fff6d5" offset="1"/>
  </linearGradient>
  <linearGradient id="a" x1="147.93" x2="162.31" y1="147.78" y2="168.62" gradientUnits="userSpaceOnUse">
   <stop stop-color="#ffe6d5" offset="0"/>
   <stop stop-color="#2b1100" offset="1"/>
  </linearGradient>
 </defs>
 <g transform="translate(-45.971 -126.12)">
  <g transform="translate(2.4449 2.2268)" fill-rule="evenodd" opacity=".46635">
   <path d="m117.91 144.72c-19.728 13.689-39.465 27.365-59.188 41.062 10.26 14.792 20.511 29.59 30.781 44.375 19.946-13.846 39.918-27.657 59.844-41.531 0.97308-7.6587 3.6573-15.731 3.5938-23.156-4.3506-5.5718-7.7506-12.622-12.688-17.281-7.3691-0.90649-15.22-3.5875-22.344-3.4688zm19.312 16.344c4.4564-0.35701 3.7375 7.3219-0.6875 5.875-3.2024-0.8292-2.6172-5.7434 0.6875-5.875z" opacity=".34615"/>
   <path d="m118.25 145.97c-19.28 13.378-38.57 26.74-57.844 40.125 9.7984 14.128 19.599 28.255 29.406 42.375 19.469-13.513 38.961-26.993 58.406-40.531 1.0265-7.539 3.4468-15.244 3.4688-22.125-4.2477-5.5508-7.5919-12.162-12.062-16.5-7.2944-0.96256-14.783-3.3748-21.375-3.3438zm18.875 13.875h0.0312c1.4428-0.10481 2.7237 0.52645 3.4375 1.4688 0.71922 0.94951 0.92779 2.1076 0.8125 3.2188s-0.57304 2.2363-1.5 3c-0.913 0.75223-2.2926 0.99692-3.6875 0.5625v0.0312l-0.0625-0.0312c-2.1317-0.59259-3.1512-2.6881-2.9375-4.5 0.21511-1.8235 1.6752-3.6443 3.9062-3.75z" opacity=".34615"/>
   <path d="m118.5 146.78c-18.979 13.169-37.966 26.325-56.938 39.5 9.4836 13.675 18.946 27.365 28.438 41.031 19.163-13.3 38.361-26.551 57.5-39.875 1.0568-7.4272 3.302-14.858 3.375-21.375-4.1913-5.5341-7.4935-11.862-11.688-16-7.2031-0.99171-14.454-3.2479-20.688-3.2812zm18.562 12.25h0.0625c1.6681-0.11171 3.2598 0.63896 4.125 1.7812 0.87632 1.1569 1.1341 2.5203 1 3.8125s-0.67506 2.5941-1.8125 3.5312c-1.1084 0.91326-2.8118 1.1958-4.4062 0.71875v0.0312l-0.0625-0.0312c-0.0208-7e-3 -0.0417 7e-3 -0.0625 0v-0.0312c-2.4839-0.72483-3.7505-3.2201-3.5-5.3438 0.2532-2.1464 2.0329-4.3299 4.6562-4.4688z" opacity=".34615"/>
  </g>
  <path d="m142.67 170.41c-2.269 1.5738-5.3843 1.0102-6.9581-1.2588s-1.0102-5.3843 1.2588-6.9581 5.3843-1.0102 6.9581 1.2588 1.0102 5.3843-1.2588 6.9581zm-21.206-21.801 20.874 3.7764 11.399 16.434-3.7764 20.874-57.519 39.895-28.497-41.085 57.518-39.895z" fill="url(#b)" fill-rule="evenodd"/>
  <path d="m159.76 147.85c-1.1055 0.17253-2.4419 0.70618-4 1.5-3.1162 1.5877-7.0448 4.1605-10.844 6.7188l0.56253 0.84373c3.7924-2.5539 7.6909-5.1136 10.719-6.6563 1.5139-0.77131 2.8223-1.2976 3.7188-1.4375 0.44825-0.07 0.76952-0.0465 0.96876 0.0312s0.29842 0.16563 0.37501 0.40626c0.0842 0.26454 8e-3 0.83795-0.37501 1.5625s-1.0177 1.5874-1.8438 2.5312c-1.652 1.8877-4.0372 4.0556-6.5937 6.0312s-5.3006 3.7552-7.625 4.9062c-1.1622 0.57552-2.2256 0.98502-3.0938 1.1875-0.60773 0.14172-0.94217 0.0574-1.3125 1e-5 0.56033-1.2297 1.2833-2.4749 1.7188-3.625l-0.93752-0.34374c-0.44391 1.1726-1.4217 2.6691-2.0312 4.25l-0.15626 0.40624 0.40626 0.21876c0.70323 0.35161 1.5469 0.32335 2.5312 0.0937s2.1055-0.68354 3.3125-1.2812c2.414-1.1954 5.1837-3.0239 7.7813-5.0312s5.0336-4.1949 6.75-6.1563c0.85822-0.98067 1.5272-1.8842 1.9688-2.7187s0.69393-1.6048 0.46876-2.3125c-0.15336-0.48193-0.52334-0.88843-0.96875-1.0625s-0.94726-0.14876-1.5-0.0625z" fill="url(#a)"/>
 </g>
</svg>
